<svg width="20" height="20" viewBox="0 0 20 20" fill="none" xmlns="http://www.w3.org/2000/svg">
<path d="M18.1585 0.349197C17.6824 0.349197 17.1109 0.412689 16.3808 0.507928C15.6506 0.634912 15.1427 0.761896 14.857 0.920626C14.5395 1.07936 14.0951 1.49205 13.4601 2.15872C12.857 2.79364 12.0633 3.84126 11.1109 5.17459C10.1585 6.53967 9.33315 7.84126 8.63474 9.1111C7.99981 10.2222 7.36489 11.4603 6.72997 12.7619C6.28553 12.1905 5.80934 11.746 5.33315 11.3968C4.72997 10.9841 4.1268 10.7619 3.58712 10.7619C3.04743 10.7619 2.41251 11.0159 1.77759 11.4921C1.11093 12 0.761719 12.5714 0.761719 13.1746C0.761719 13.6508 1.04743 14.1905 1.65061 14.8254C2.50775 15.7778 3.20616 16.6667 3.7141 17.4603C4.09505 18.0317 4.34902 18.4127 4.50775 18.6032C4.69823 18.7936 4.92045 18.9524 5.17442 19.0476C5.42839 19.1429 5.87283 19.1746 6.476 19.1746C7.33315 19.1746 7.90458 19.0794 8.25378 18.8889C8.60299 18.6984 8.85696 18.4444 9.04743 18.0952C9.20616 17.7778 9.49188 17.1746 9.87283 16.2222C10.8252 13.8413 12.1268 11.3333 13.7458 8.79364C15.3649 6.25396 16.9204 4.28571 18.4125 2.88888C18.7935 2.57142 19.0157 2.31745 19.1109 2.15872C19.3014 2.03174 19.3649 1.80952 19.3649 1.55555C19.3649 1.23809 19.2379 0.952372 19.0157 0.73015C18.8252 0.476182 18.5078 0.349197 18.1585 0.349197Z" fill="#00D1BC"/>
</svg>
